<?xml version="1.0" encoding="utf-8"?>
<!-- Generator: Adobe Illustrator 27.5.0, SVG Export Plug-In . SVG Version: 6.00 Build 0)  -->
<svg version="1.1" id="Layer_1" xmlns="http://www.w3.org/2000/svg" xmlns:xlink="http://www.w3.org/1999/xlink" x="0px" y="0px"
	 viewBox="0 0 64 64" style="enable-background:new 0 0 64 64;" xml:space="preserve">
<style type="text/css">
	.st0{fill:#FFFFFF;}
	.st1{fill:#000E4E;stroke:#000E4E;stroke-width:0.1568;stroke-miterlimit:10;}
</style>
<path class="st0" d="M44.92,30.52L25.11,19.16c-2.67-1.53-4.83-0.28-4.83,2.79v22.67c0,3.07,2.16,4.32,4.83,2.8l19.81-11.36
	C47.59,34.53,47.59,32.05,44.92,30.52z"/>
<path class="st1" d="M32,0C14.33,0,0,14.33,0,32c0,17.67,14.33,32,32,32c17.67,0,32-14.33,32-32C64,14.33,49.67,0,32,0z
	 M44.92,36.05L25.11,47.42c-2.67,1.53-4.83,0.28-4.83-2.8V21.95c0-3.07,2.16-4.32,4.83-2.79l19.81,11.36
	C47.59,32.05,47.59,34.53,44.92,36.05z"/>
</svg>
